<?xml version="1.0" encoding="UTF-8" standalone="no"?>
<!-- Created with Inkscape (http://www.inkscape.org/) -->

<svg
   version="1.1"
   id="svg2487"
   width="880"
   height="880"
   viewBox="0 0 880 880"
   sodipodi:docname="book-cup-coffee-publicdomainvectors.org.svg"
   inkscape:version="1.2 (dc2aedaf03, 2022-05-15)"
   xmlns:inkscape="http://www.inkscape.org/namespaces/inkscape"
   xmlns:sodipodi="http://sodipodi.sourceforge.net/DTD/sodipodi-0.dtd"
   xmlns="http://www.w3.org/2000/svg"
   xmlns:svg="http://www.w3.org/2000/svg">
  <defs
     id="defs2491">
    <clipPath
       clipPathUnits="userSpaceOnUse"
       id="clipPath2503">
      <path
         d="M 0,660 H 660 V 0 H 0 Z"
         id="path2501" />
    </clipPath>
  </defs>
  <sodipodi:namedview
     id="namedview2489"
     pagecolor="#ffffff"
     bordercolor="#000000"
     borderopacity="0.25"
     inkscape:showpageshadow="2"
     inkscape:pageopacity="0.0"
     inkscape:pagecheckerboard="0"
     inkscape:deskcolor="#d1d1d1"
     showgrid="false"
     inkscape:zoom="0.925"
     inkscape:cx="439.45946"
     inkscape:cy="440"
     inkscape:window-width="1920"
     inkscape:window-height="1017"
     inkscape:window-x="-8"
     inkscape:window-y="-8"
     inkscape:window-maximized="1"
     inkscape:current-layer="g2495">
    <inkscape:page
       x="0"
       y="0"
       id="page2493"
       width="880"
       height="880" />
  </sodipodi:namedview>
  <g
     id="g2495"
     inkscape:groupmode="layer"
     inkscape:label="Page 1"
     transform="matrix(1.3333333,0,0,-1.3333333,0,880)">
    <g
       id="g2497">
      <g
         id="g2499"
         clip-path="url(#clipPath2503)">
        <g
           id="g2505"
           transform="translate(250.7363,400.6611)">
          <path
             d="m 0,0 c 40.136,0 72.867,24.579 72.867,54.716 0,30.136 -32.731,54.715 -72.867,54.715 -40.133,0 -72.867,-24.579 -72.867,-54.715 C -72.867,24.579 -40.133,0 0,0"
             style="fill:#e6e6e6;fill-opacity:1;fill-rule:evenodd;stroke:none"
             id="path2507" />
        </g>
        <g
           id="g2509"
           transform="translate(301.3867,499.98)">
          <path
             d="m 0,0 c 12.754,0 25.544,-16.413 28.569,-36.66 3.024,-20.246 -4.862,-36.66 -17.616,-36.66 -12.752,0 -25.542,16.414 -28.564,36.66 C -20.637,-16.413 -12.751,0 0,0"
             style="fill:#e6e6e6;fill-opacity:1;fill-rule:evenodd;stroke:none"
             id="path2511" />
        </g>
        <g
           id="g2513"
           transform="translate(210.6621,140.8506)">
          <path
             d="m 0,0 201.045,85.081 199.193,111.19 -165.133,121.052 -49.331,-4.548 z"
             style="fill:#e6e6e6;fill-opacity:1;fill-rule:evenodd;stroke:none"
             id="path2515" />
        </g>
        <g
           id="g2517"
           transform="translate(399.9707,212.7148)">
          <path
             d="m 0,0 c 2.48,6.445 5.798,9.768 10.846,6.648 1.241,9.136 2.482,18.271 3.723,27.408 -13.41,6.007 -26.821,12.013 -40.232,18.018 -1.867,-12.421 -3.734,-24.841 -5.599,-37.26 0.527,-0.118 1.05,-0.235 1.575,-0.351 C -19.793,9.644 -9.897,4.821 0,0"
             style="fill:#b08e6f;fill-opacity:1;fill-rule:evenodd;stroke:none"
             id="path2519" />
        </g>
        <g
           id="g2521"
           transform="translate(62.708,329.917)">
          <path
             d="m 0,0 v -22.741 l 127.349,-186.474 12.595,29.388 z"
             style="fill:#e6c4a3;fill-opacity:1;fill-rule:evenodd;stroke:none"
             id="path2523" />
        </g>
        <g
           id="g2525"
           transform="translate(189.3574,148.6904)">
          <path
             d="m 0,0 c 0.234,-9.329 0.468,-18.661 0.699,-27.988 71.721,31.72 126.299,107.174 209.914,92.012 -3.606,7.592 -2.176,18.965 1.748,25.54 C 157.552,105.657 102.741,121.75 47.93,137.845 31.953,91.898 15.977,45.947 0,0"
             style="fill:#d6b291;fill-opacity:1;fill-rule:evenodd;stroke:none"
             id="path2527" />
        </g>
        <g
           id="g2529"
           transform="translate(582.9619,353.0273)">
          <path
             d="M 0,0 C 1.861,-5.838 3.721,-11.674 5.583,-17.512 -76.246,-26.315 -124,-74.34 -172.146,-133.665 c -1.166,7.465 -4.431,14.752 -9.097,18.892 -0.465,33.353 -0.93,66.707 -1.398,100.06 v 2.1 c 40.35,8.162 80.701,16.325 121.05,24.489 5.904,0.962 8.144,0.699 13.995,0.699 C -31.731,8.384 -15.865,4.192 0,0"
             style="fill:#c49f7c;fill-opacity:1;fill-rule:evenodd;stroke:none"
             id="path2531" />
        </g>
        <g
           id="g2533"
           transform="translate(401.7188,238.2539)">
          <path
             d="m 0,0 c -47.813,48.747 -95.627,97.494 -143.441,146.241 46.224,52.628 96.018,94.182 160.936,88.864 C 72.076,194.995 126.659,154.884 181.243,114.773 116.128,108.379 54.651,77.275 0,0"
             style="fill:#fce1c7;fill-opacity:1;fill-rule:evenodd;stroke:none"
             id="path2535" />
        </g>
        <g
           id="g2537"
           transform="translate(528.9131,379.6514)">
          <path
             d="m 0,0 c -30.786,22.622 -61.571,45.245 -92.355,67.868 -15.943,11.714 -34.55,15.144 -53.62,9.882 -19.593,-5.406 -37.541,-15.663 -54.023,-28.367 -3.875,-2.987 -5.662,-7.546 -4.844,-12.37 0.821,-4.825 3.778,-9.659 8.651,-10.082 56.637,-4.904 102.13,-19.238 134.51,-44.666 15.683,-12.315 37.128,-5.857 55.736,1.306 1.255,0.483 2.518,0.957 3.794,1.421 3.059,1.113 5.109,3.639 5.571,6.861 C 3.88,-4.927 2.622,-1.927 0,0"
             style="fill:#ffebd9;fill-opacity:1;fill-rule:evenodd;stroke:none"
             id="path2539" />
        </g>
        <g
           id="g2541"
           transform="translate(401.7188,238.2539)">
          <path
             d="m 0,0 c -47.813,48.747 -95.627,97.494 -143.441,146.241 11.79,13.423 23.81,26.121 36.255,37.509 l -8.606,-11.42 c -9.741,-12.923 -7.833,-31.094 4.381,-41.71 19.301,-16.778 38.602,-33.557 57.903,-50.337 29.225,-25.405 70.439,-27.904 102.52,-6.218 30.113,20.359 65.254,41.893 125.944,40.013 v -0.002 C 112.17,106.323 52.889,74.783 0,0"
             style="fill:#f2d2b3;fill-opacity:1;fill-rule:evenodd;stroke:none"
             id="path2543" />
        </g>
        <g
           id="g2545"
           transform="translate(258.2773,384.4951)">
          <path
             d="M 0,0 C -101.048,33.691 -143.734,-40.455 -195.569,-54.578 L -68.92,-235.805 c 59.36,26.825 132.713,104.725 212.361,89.564 z"
             style="fill:#ffecdb;fill-opacity:1;fill-rule:evenodd;stroke:none"
             id="path2547" />
        </g>
        <g
           id="g2549"
           transform="translate(258.2773,384.4951)">
          <path
             d="m 0,0 c -101.048,33.691 -143.734,-40.455 -195.569,-54.578 51.864,6.76 91.044,37.189 130.028,44.935 19.816,3.938 38.587,-1.359 53.427,-15.073 22.735,-21.014 45.478,-42.029 68.214,-63.044 6.398,-5.912 9.241,-13.873 8.039,-22.5 -1.202,-8.629 -6.119,-15.507 -13.888,-19.442 -41.031,-20.783 -68.545,-75.408 -119.171,-106.103 59.36,26.825 132.713,104.725 212.361,89.564 z"
             style="fill:#fce1c7;fill-opacity:1;fill-rule:evenodd;stroke:none"
             id="path2551" />
        </g>
        <g
           id="g2553"
           transform="translate(175.9082,184.4541)">
          <path
             d="m 0,0 c -31.593,46.019 -63.19,92.041 -94.783,138.061 26.837,1.414 48.879,15.79 71.821,27.189 4.926,2.447 10.407,2.019 14.891,-1.163 4.488,-3.184 6.703,-8.216 6.018,-13.674 C -8.052,102.492 22.275,49.455 0,0"
             style="fill:#fff8f2;fill-opacity:1;fill-rule:evenodd;stroke:none"
             id="path2555" />
        </g>
        <g
           id="g2557"
           transform="translate(217.0703,398.2178)">
          <path
             d="M 0,0 C 53.376,0 96.91,27.264 96.91,60.692 96.91,94.12 53.376,121.385 0,121.385 -53.376,121.385 -96.909,94.12 -96.909,60.692 -96.909,27.264 -53.376,0 0,0"
             style="fill:#e39400;fill-opacity:1;fill-rule:evenodd;stroke:none"
             id="path2559" />
        </g>
        <g
           id="g2561"
           transform="translate(297.2246,431.3662)">
          <path
             d="m 0,0 c -15.933,-16.645 -45.86,-27.854 -80.154,-27.854 -51.01,0 -92.364,24.802 -92.364,55.398 0,13.219 7.726,25.353 20.607,34.875 -7.767,-8.113 -12.209,-17.517 -12.209,-27.543 0,-30.596 41.352,-55.398 92.363,-55.398 28.974,0 54.822,8.003 71.757,20.522"
             style="fill:#f5ac00;fill-opacity:1;fill-rule:evenodd;stroke:none"
             id="path2563" />
        </g>
        <g
           id="g2565"
           transform="translate(230.1943,435.1367)">
          <path
             d="m 0,0 c 23.507,0 42.682,8.6 42.682,19.144 0,10.545 -19.175,19.145 -42.682,19.145 -23.512,0 -42.684,-8.6 -42.684,-19.145 C -42.684,8.6 -23.512,0 0,0"
             style="fill:#c78100;fill-opacity:1;fill-rule:evenodd;stroke:none"
             id="path2567" />
        </g>
        <g
           id="g2569"
           transform="translate(270.4365,531.4082)">
          <path
             d="m 0,0 c 0,-0.237 0.005,-0.476 0.005,-0.714 0,-49.54 -25.851,-89.7 -57.742,-89.7 -31.895,0 -57.745,40.16 -57.745,89.7 0,0.238 0.005,0.477 0.005,0.714 z"
             style="fill:#ffbb00;fill-opacity:1;fill-rule:evenodd;stroke:none"
             id="path2571" />
        </g>
        <g
           id="g2573"
           transform="translate(212.6992,504.8662)">
          <path
             d="M 0,0 C 31.807,0 57.747,11.602 57.747,25.828 57.747,40.053 31.807,51.654 0,51.654 -31.805,51.654 -57.745,40.053 -57.745,25.828 -57.745,11.602 -31.805,0 0,0"
             style="fill:#e39400;fill-opacity:1;fill-rule:evenodd;stroke:none"
             id="path2575" />
        </g>
        <g
           id="g2577"
           transform="translate(220.4268,312.9473)">
          <path
             d="M 0,0 0.144,3.584 -0.231,29.005 20.331,15.546 76.365,-65.203 71.551,-78.665 51.373,-86.904 37.354,-83.525 Z"
             style="fill:#fce1c7;fill-opacity:1;fill-rule:evenodd;stroke:none"
             id="path2579" />
        </g>
        <g
           id="g2581"
           transform="translate(212.6992,556.5205)">
          <path
             d="m 0,0 c 5.203,0 10.242,-0.309 15.037,-0.886 -29.631,0.508 -47.263,-25.596 -19.566,-50.689 -29.775,1.033 -53.216,12.165 -53.216,25.748 C -57.745,-11.563 -31.892,0 0,0"
             style="fill:#c98300;fill-opacity:1;fill-rule:evenodd;stroke:none"
             id="path2583" />
        </g>
        <g
           id="g2585"
           transform="translate(257.7803,229.4219)">
          <path
             d="m 0,0 -12.082,15.514 6.84,20.789 18.069,5.84 11.011,-10.539 -6.26,-22.531 z"
             style="fill:#bf8e5e;fill-opacity:1;fill-rule:evenodd;stroke:none"
             id="path2587" />
        </g>
        <g
           id="g2589"
           transform="translate(265.5498,259.832)">
          <path
             d="m 0,0 c 3.802,0 6.431,-3.676 5.87,-8.213 -0.561,-4.537 -4.1,-8.215 -7.905,-8.215 -3.802,0 -6.431,3.678 -5.868,8.215 C -7.341,-3.676 -3.805,0 0,0"
             style="fill:#4a2f13;fill-opacity:1;fill-rule:evenodd;stroke:none"
             id="path2591" />
        </g>
        <g
           id="g2593"
           transform="translate(232.1582,325.0713)">
          <path
             d="m 0,0 -30.397,24.031 4.878,-39.693 z"
             style="fill:#bf8e5e;fill-opacity:1;fill-rule:evenodd;stroke:none"
             id="path2595" />
        </g>
        <g
           id="g2597"
           transform="translate(211.5186,341.3887)">
          <path
             d="M 0,0 -9.758,7.714 -8.161,-5.27 C -7.645,-0.948 -3.225,1.15 0,0"
             style="fill:#4a2f13;fill-opacity:1;fill-rule:evenodd;stroke:none"
             id="path2599" />
        </g>
        <g
           id="g2601"
           transform="translate(270.6074,271.5635)">
          <path
             d="M 0,0 -45.364,58.766 -58.171,53.132 -18.069,-5.839 Z"
             style="fill:#ffbb00;fill-opacity:1;fill-rule:evenodd;stroke:none"
             id="path2603" />
        </g>
        <g
           id="g2605"
           transform="translate(245.6982,244.9355)">
          <path
             d="M 0,0 -39.335,64.929 -33.262,79.76 6.84,20.789 Z"
             style="fill:#ffcc00;fill-opacity:1;fill-rule:evenodd;stroke:none"
             id="path2607" />
        </g>
        <g
           id="g2609"
           transform="translate(281.6182,261.0264)">
          <path
             d="m 0,0 -49.46,64.045 -6.915,5.258 45.364,-58.766 z"
             style="fill:#e39400;fill-opacity:1;fill-rule:evenodd;stroke:none"
             id="path2611" />
        </g>
        <g
           id="g2613"
           transform="translate(296.792,247.7363)">
          <path
             d="m 0,0 c -8.69,-6.031 -16.882,-13.477 -24.987,-21.69 l 20.172,8.236 z"
             style="fill:#f2d2b3;fill-opacity:1;fill-rule:evenodd;stroke:none"
             id="path2615" />
        </g>
      </g>
    </g>
  </g>
</svg>
